<?xml version="1.0" encoding="UTF-8"?>
<svg xmlns="http://www.w3.org/2000/svg" width="960" height="670" viewBox="0 0 960 670">
<style>text{font-family:Segoe UI, Microsoft YaHei, Arial, sans-serif;}</style>
<text x="80" y="36" font-size="20" fill="#222">otidx vs rg 速度对比（ms，越低越快）</text>
<text x="80" y="60" font-size="12" fill="#666">2026-01-31 21:55:56 | ripgrep 14.1.1 (rev 4649aa9700)</text>
<rect x="700" y="20" width="220" height="44" fill="white" opacity="0.9"/>
<rect x="708" y="30" width="14" height="14" fill="#4C78A8"/>
<text x="728" y="42" font-size="12" fill="#222">otidx (ms)</text>
<rect x="812" y="30" width="14" height="14" fill="#F58518"/>
<text x="832" y="42" font-size="12" fill="#222">rg (ms)</text>
<line x1="80" y1="500.00" x2="920" y2="500.00" stroke="#e5e5e5" stroke-width="1"/>
<text x="70" y="504.00" font-size="11" text-anchor="end" fill="#555">0</text>
<line x1="80" y1="431.01" x2="920" y2="431.01" stroke="#e5e5e5" stroke-width="1"/>
<text x="70" y="435.01" font-size="11" text-anchor="end" fill="#555">34</text>
<line x1="80" y1="360.00" x2="920" y2="360.00" stroke="#e5e5e5" stroke-width="1"/>
<text x="70" y="364.00" font-size="11" text-anchor="end" fill="#555">69</text>
<line x1="80" y1="291.01" x2="920" y2="291.01" stroke="#e5e5e5" stroke-width="1"/>
<text x="70" y="295.01" font-size="11" text-anchor="end" fill="#555">103</text>
<line x1="80" y1="220.00" x2="920" y2="220.00" stroke="#e5e5e5" stroke-width="1"/>
<text x="70" y="224.00" font-size="11" text-anchor="end" fill="#555">138</text>
<line x1="80" y1="151.01" x2="920" y2="151.01" stroke="#e5e5e5" stroke-width="1"/>
<text x="70" y="155.01" font-size="11" text-anchor="end" fill="#555">172</text>
<line x1="80" y1="80.00" x2="920" y2="80.00" stroke="#e5e5e5" stroke-width="1"/>
<text x="70" y="84.00" font-size="11" text-anchor="end" fill="#555">207</text>
<line x1="80" y1="500" x2="920" y2="500" stroke="#444" stroke-width="1.2"/>
<line x1="80" y1="80" x2="80" y2="500" stroke="#444" stroke-width="1.2"/>
<rect x="103.00" y="134.78" width="42" height="365.22" fill="#4C78A8"/>
<rect x="155.00" y="416.81" width="42" height="83.19" fill="#F58518"/>
<text x="124.00" y="128.78" font-size="11" text-anchor="middle" fill="#222">180</text>
<text x="176.00" y="410.81" font-size="11" text-anchor="middle" fill="#222">41</text>
<text x="150.00" y="528.00" font-size="12" text-anchor="end" fill="#222" transform="rotate(25 150.00 528.00)">if err != nil</text>
<rect x="243.00" y="327.54" width="42" height="172.46" fill="#4C78A8"/>
<rect x="295.00" y="418.84" width="42" height="81.16" fill="#F58518"/>
<text x="264.00" y="321.54" font-size="11" text-anchor="middle" fill="#222">85</text>
<text x="316.00" y="412.84" font-size="11" text-anchor="middle" fill="#222">40</text>
<text x="290.00" y="528.00" font-size="12" text-anchor="end" fill="#222" transform="rotate(25 290.00 528.00)">CREATE TABLE</text>
<rect x="383.00" y="335.65" width="42" height="164.35" fill="#4C78A8"/>
<rect x="435.00" y="406.67" width="42" height="93.33" fill="#F58518"/>
<text x="404.00" y="329.65" font-size="11" text-anchor="middle" fill="#222">81</text>
<text x="456.00" y="400.67" font-size="11" text-anchor="middle" fill="#222">46</text>
<text x="430.00" y="528.00" font-size="12" text-anchor="end" fill="#222" transform="rotate(25 430.00 528.00)">BEGIN IMMEDIATE</text>
<rect x="523.00" y="353.91" width="42" height="146.09" fill="#4C78A8"/>
<rect x="575.00" y="400.58" width="42" height="99.42" fill="#F58518"/>
<text x="544.00" y="347.91" font-size="11" text-anchor="middle" fill="#222">72</text>
<text x="596.00" y="394.58" font-size="11" text-anchor="middle" fill="#222">49</text>
<text x="570.00" y="528.00" font-size="12" text-anchor="end" fill="#222" transform="rotate(25 570.00 528.00)">ReplaceChunksBatch</text>
<rect x="663.00" y="355.94" width="42" height="144.06" fill="#4C78A8"/>
<rect x="715.00" y="408.70" width="42" height="91.30" fill="#F58518"/>
<text x="684.00" y="349.94" font-size="11" text-anchor="middle" fill="#222">71</text>
<text x="736.00" y="402.70" font-size="11" text-anchor="middle" fill="#222">45</text>
<text x="710.00" y="528.00" font-size="12" text-anchor="end" fill="#222" transform="rotate(25 710.00 528.00)">SELECT</text>
<rect x="803.00" y="360.00" width="42" height="140.00" fill="#4C78A8"/>
<rect x="855.00" y="406.67" width="42" height="93.33" fill="#F58518"/>
<text x="824.00" y="354.00" font-size="11" text-anchor="middle" fill="#222">69</text>
<text x="876.00" y="400.67" font-size="11" text-anchor="middle" fill="#222">46</text>
<text x="850.00" y="528.00" font-size="12" text-anchor="end" fill="#222" transform="rotate(25 850.00 528.00)">NewQueryCache</text>
<text x="80" y="642" font-size="11" fill="#666">说明：otidx 走 SQLite/FTS 索引；rg 为直接扫描文件。数值为脚本取多次运行中的最小 wall time（ms）。</text>
</svg>
