<?xml version="1.0" encoding="UTF-8"?>
<svg xmlns="http://www.w3.org/2000/svg" width="820" height="690" viewBox="0 0 820 690">
<style>text{font-family:Segoe UI, Microsoft YaHei, Arial, sans-serif;}</style>
<text x="80" y="36" font-size="20" fill="#222">Python（crawl4ai）</text>
<text x="80" y="60" font-size="12" fill="#666">2026-02-01 21:25:56 | ripgrep 14.1.1 (rev 4649aa9700)</text>
<rect x="560" y="20" width="220" height="44" fill="white" opacity="0.9"/>
<rect x="568" y="30" width="14" height="14" fill="#4C78A8"/>
<text x="588" y="42" font-size="12" fill="#222">otidx 查询（扣加载）</text>
<rect x="672" y="30" width="14" height="14" fill="#F58518"/>
<text x="692" y="42" font-size="12" fill="#222">rg (ms)</text>
<rect x="80" y="64" width="700" height="30" fill="white" opacity="0.85"/>
<text x="82" y="84" font-size="12" fill="#444">加载时间(otidx wall - query): 中位 68ms (min 66 / max 71) | 加载时间(索引构建): 1775ms</text>
<line x1="80" y1="520.00" x2="780" y2="520.00" stroke="#e5e5e5" stroke-width="1"/>
<text x="70" y="524.00" font-size="11" text-anchor="end" fill="#555">0</text>
<line x1="80" y1="458.54" x2="780" y2="458.54" stroke="#e5e5e5" stroke-width="1"/>
<text x="70" y="462.54" font-size="11" text-anchor="end" fill="#555">6</text>
<line x1="80" y1="386.83" x2="780" y2="386.83" stroke="#e5e5e5" stroke-width="1"/>
<text x="70" y="390.83" font-size="11" text-anchor="end" fill="#555">13</text>
<line x1="80" y1="315.12" x2="780" y2="315.12" stroke="#e5e5e5" stroke-width="1"/>
<text x="70" y="319.12" font-size="11" text-anchor="end" fill="#555">20</text>
<line x1="80" y1="243.41" x2="780" y2="243.41" stroke="#e5e5e5" stroke-width="1"/>
<text x="70" y="247.41" font-size="11" text-anchor="end" fill="#555">27</text>
<line x1="80" y1="171.71" x2="780" y2="171.71" stroke="#e5e5e5" stroke-width="1"/>
<text x="70" y="175.71" font-size="11" text-anchor="end" fill="#555">34</text>
<line x1="80" y1="100.00" x2="780" y2="100.00" stroke="#e5e5e5" stroke-width="1"/>
<text x="70" y="104.00" font-size="11" text-anchor="end" fill="#555">41</text>
<line x1="80" y1="520" x2="780" y2="520" stroke="#444" stroke-width="1.2"/>
<line x1="80" y1="100" x2="80" y2="520" stroke="#444" stroke-width="1.2"/>
<rect x="103.00" y="335.61" width="42" height="184.39" fill="#4C78A8"/>
<rect x="155.00" y="161.46" width="42" height="358.54" fill="#F58518"/>
<text x="124.00" y="329.61" font-size="11" text-anchor="middle" fill="#222">18</text>
<text x="176.00" y="155.46" font-size="11" text-anchor="middle" fill="#222">35</text>
<text x="150.00" y="548.00" font-size="12" text-anchor="end" fill="#222" transform="rotate(25 150.00 548.00)">import (line)</text>
<rect x="243.00" y="376.59" width="42" height="143.41" fill="#4C78A8"/>
<rect x="295.00" y="181.95" width="42" height="338.05" fill="#F58518"/>
<text x="264.00" y="370.59" font-size="11" text-anchor="middle" fill="#222">14</text>
<text x="316.00" y="175.95" font-size="11" text-anchor="middle" fill="#222">33</text>
<text x="290.00" y="548.00" font-size="12" text-anchor="end" fill="#222" transform="rotate(25 290.00 548.00)">class (line)</text>
<rect x="383.00" y="315.12" width="42" height="204.88" fill="#4C78A8"/>
<rect x="435.00" y="192.20" width="42" height="327.80" fill="#F58518"/>
<text x="404.00" y="309.12" font-size="11" text-anchor="middle" fill="#222">20</text>
<text x="456.00" y="186.20" font-size="11" text-anchor="middle" fill="#222">32</text>
<text x="430.00" y="548.00" font-size="12" text-anchor="end" fill="#222" transform="rotate(25 430.00 548.00)">async def (line)</text>
<rect x="523.00" y="233.17" width="42" height="286.83" fill="#4C78A8"/>
<rect x="575.00" y="192.20" width="42" height="327.80" fill="#F58518"/>
<text x="544.00" y="227.17" font-size="11" text-anchor="middle" fill="#222">28</text>
<text x="596.00" y="186.20" font-size="11" text-anchor="middle" fill="#222">32</text>
<text x="570.00" y="548.00" font-size="12" text-anchor="end" fill="#222" transform="rotate(25 570.00 548.00)">def (line)</text>
<rect x="663.00" y="294.63" width="42" height="225.37" fill="#4C78A8"/>
<rect x="715.00" y="202.44" width="42" height="317.56" fill="#F58518"/>
<text x="684.00" y="288.63" font-size="11" text-anchor="middle" fill="#222">22</text>
<text x="736.00" y="196.44" font-size="11" text-anchor="middle" fill="#222">31</text>
<text x="710.00" y="548.00" font-size="12" text-anchor="end" fill="#222" transform="rotate(25 710.00 548.00)">async def (symbol, fallback)</text>
<text x="80" y="662" font-size="11" fill="#666">说明：otidx 走 SQLite/FTS 索引；rg 为直接扫描文件。图中 otidx 为查询耗时（已扣除加载）。</text>
</svg>
