<?xml version="1.0" encoding="UTF-8"?>
<svg xmlns="http://www.w3.org/2000/svg" width="820" height="690" viewBox="0 0 820 690">
<style>text{font-family:Segoe UI, Microsoft YaHei, Arial, sans-serif;}</style>
<text x="80" y="36" font-size="20" fill="#222">Vue/TS（JeecgBoot - jeecgboot-vue3）</text>
<text x="80" y="60" font-size="12" fill="#666">2026-02-01 21:21:05</text>
<rect x="560" y="20" width="220" height="44" fill="white" opacity="0.9"/>
<rect x="568" y="30" width="14" height="14" fill="#4C78A8"/>
<text x="588" y="42" font-size="12" fill="#222">otidx (ms)</text>
<rect x="672" y="30" width="14" height="14" fill="#F58518"/>
<text x="692" y="42" font-size="12" fill="#222">rg (ms)</text>
<rect x="80" y="64" width="700" height="30" fill="white" opacity="0.85"/>
<text x="82" y="84" font-size="12" fill="#444">加载时间(索引构建): 1504ms</text>
<line x1="80" y1="520.00" x2="780" y2="520.00" stroke="#e5e5e5" stroke-width="1"/>
<text x="70" y="524.00" font-size="11" text-anchor="end" fill="#555">0</text>
<line x1="80" y1="450.04" x2="780" y2="450.04" stroke="#e5e5e5" stroke-width="1"/>
<text x="70" y="454.04" font-size="11" text-anchor="end" fill="#555">323</text>
<line x1="80" y1="380.07" x2="780" y2="380.07" stroke="#e5e5e5" stroke-width="1"/>
<text x="70" y="384.07" font-size="11" text-anchor="end" fill="#555">646</text>
<line x1="80" y1="310.11" x2="780" y2="310.11" stroke="#e5e5e5" stroke-width="1"/>
<text x="70" y="314.11" font-size="11" text-anchor="end" fill="#555">969</text>
<line x1="80" y1="240.14" x2="780" y2="240.14" stroke="#e5e5e5" stroke-width="1"/>
<text x="70" y="244.14" font-size="11" text-anchor="end" fill="#555">1292</text>
<line x1="80" y1="170.18" x2="780" y2="170.18" stroke="#e5e5e5" stroke-width="1"/>
<text x="70" y="174.18" font-size="11" text-anchor="end" fill="#555">1615</text>
<line x1="80" y1="100.00" x2="780" y2="100.00" stroke="#e5e5e5" stroke-width="1"/>
<text x="70" y="104.00" font-size="11" text-anchor="end" fill="#555">1939</text>
<line x1="80" y1="520" x2="780" y2="520" stroke="#444" stroke-width="1.2"/>
<line x1="80" y1="100" x2="80" y2="520" stroke="#444" stroke-width="1.2"/>
<rect x="103.00" y="154.80" width="42" height="365.20" fill="#4C78A8"/>
<rect x="155.00" y="510.90" width="42" height="9.10" fill="#F58518"/>
<text x="124.00" y="148.80" font-size="11" text-anchor="middle" fill="#222">1686</text>
<text x="176.00" y="504.90" font-size="11" text-anchor="middle" fill="#222">42</text>
<text x="150.00" y="548.00" font-size="12" text-anchor="end" fill="#222" transform="rotate(25 150.00 548.00)">export default (line)</text>
<rect x="243.00" y="392.20" width="42" height="127.80" fill="#4C78A8"/>
<rect x="295.00" y="509.82" width="42" height="10.18" fill="#F58518"/>
<text x="264.00" y="386.20" font-size="11" text-anchor="middle" fill="#222">590</text>
<text x="316.00" y="503.82" font-size="11" text-anchor="middle" fill="#222">47</text>
<text x="290.00" y="548.00" font-size="12" text-anchor="end" fill="#222" transform="rotate(25 290.00 548.00)">defineComponent (line)</text>
<rect x="383.00" y="392.85" width="42" height="127.15" fill="#4C78A8"/>
<rect x="435.00" y="507.87" width="42" height="12.13" fill="#F58518"/>
<text x="404.00" y="386.85" font-size="11" text-anchor="middle" fill="#222">587</text>
<text x="456.00" y="501.87" font-size="11" text-anchor="middle" fill="#222">56</text>
<text x="430.00" y="548.00" font-size="12" text-anchor="end" fill="#222" transform="rotate(25 430.00 548.00)">defineComponent (symbol, fallback)</text>
<rect x="523.00" y="425.56" width="42" height="94.44" fill="#4C78A8"/>
<rect x="575.00" y="510.04" width="42" height="9.96" fill="#F58518"/>
<text x="544.00" y="419.56" font-size="11" text-anchor="middle" fill="#222">436</text>
<text x="596.00" y="504.04" font-size="11" text-anchor="middle" fill="#222">46</text>
<text x="570.00" y="548.00" font-size="12" text-anchor="end" fill="#222" transform="rotate(25 570.00 548.00)">router (line)</text>
<rect x="663.00" y="444.84" width="42" height="75.16" fill="#4C78A8"/>
<rect x="715.00" y="507.87" width="42" height="12.13" fill="#F58518"/>
<text x="684.00" y="438.84" font-size="11" text-anchor="middle" fill="#222">347</text>
<text x="736.00" y="501.87" font-size="11" text-anchor="middle" fill="#222">56</text>
<text x="710.00" y="548.00" font-size="12" text-anchor="end" fill="#222" transform="rotate(25 710.00 548.00)">axios (line)</text>
<text x="80" y="662" font-size="11" fill="#666">说明：otidx 走 SQLite/FTS 索引；rg 为直接扫描文件。图中 otidx 为查询 wall time。</text>
</svg>
