<?xml version="1.0" encoding="UTF-8"?>
<svg xmlns="http://www.w3.org/2000/svg" width="820" height="690" viewBox="0 0 820 690">
<style>text{font-family:Segoe UI, Microsoft YaHei, Arial, sans-serif;}</style>
<text x="80" y="36" font-size="20" fill="#222">Vue/TS（JeecgBoot - jeecgboot-vue3）</text>
<text x="80" y="60" font-size="12" fill="#666">2026-02-01 21:25:56 | ripgrep 14.1.1 (rev 4649aa9700)</text>
<rect x="560" y="20" width="220" height="44" fill="white" opacity="0.9"/>
<rect x="568" y="30" width="14" height="14" fill="#4C78A8"/>
<text x="588" y="42" font-size="12" fill="#222">otidx 查询（扣加载）</text>
<rect x="672" y="30" width="14" height="14" fill="#F58518"/>
<text x="692" y="42" font-size="12" fill="#222">rg (ms)</text>
<rect x="80" y="64" width="700" height="30" fill="white" opacity="0.85"/>
<text x="82" y="84" font-size="12" fill="#444">加载时间(otidx wall - query): 中位 70ms (min 67 / max 73) | 加载时间(索引构建): 1132ms</text>
<line x1="80" y1="520.00" x2="780" y2="520.00" stroke="#e5e5e5" stroke-width="1"/>
<text x="70" y="524.00" font-size="11" text-anchor="end" fill="#555">0</text>
<line x1="80" y1="454.67" x2="780" y2="454.67" stroke="#e5e5e5" stroke-width="1"/>
<text x="70" y="458.67" font-size="11" text-anchor="end" fill="#555">7</text>
<line x1="80" y1="380.00" x2="780" y2="380.00" stroke="#e5e5e5" stroke-width="1"/>
<text x="70" y="384.00" font-size="11" text-anchor="end" fill="#555">15</text>
<line x1="80" y1="314.67" x2="780" y2="314.67" stroke="#e5e5e5" stroke-width="1"/>
<text x="70" y="318.67" font-size="11" text-anchor="end" fill="#555">22</text>
<line x1="80" y1="240.00" x2="780" y2="240.00" stroke="#e5e5e5" stroke-width="1"/>
<text x="70" y="244.00" font-size="11" text-anchor="end" fill="#555">30</text>
<line x1="80" y1="174.67" x2="780" y2="174.67" stroke="#e5e5e5" stroke-width="1"/>
<text x="70" y="178.67" font-size="11" text-anchor="end" fill="#555">37</text>
<line x1="80" y1="100.00" x2="780" y2="100.00" stroke="#e5e5e5" stroke-width="1"/>
<text x="70" y="104.00" font-size="11" text-anchor="end" fill="#555">45</text>
<line x1="80" y1="520" x2="780" y2="520" stroke="#444" stroke-width="1.2"/>
<line x1="80" y1="100" x2="80" y2="520" stroke="#444" stroke-width="1.2"/>
<rect x="103.00" y="398.67" width="42" height="121.33" fill="#4C78A8"/>
<rect x="155.00" y="156.00" width="42" height="364.00" fill="#F58518"/>
<text x="124.00" y="392.67" font-size="11" text-anchor="middle" fill="#222">13</text>
<text x="176.00" y="150.00" font-size="11" text-anchor="middle" fill="#222">39</text>
<text x="150.00" y="548.00" font-size="12" text-anchor="end" fill="#222" transform="rotate(25 150.00 548.00)">export default (line)</text>
<rect x="243.00" y="426.67" width="42" height="93.33" fill="#4C78A8"/>
<rect x="295.00" y="174.67" width="42" height="345.33" fill="#F58518"/>
<text x="264.00" y="420.67" font-size="11" text-anchor="middle" fill="#222">10</text>
<text x="316.00" y="168.67" font-size="11" text-anchor="middle" fill="#222">37</text>
<text x="290.00" y="548.00" font-size="12" text-anchor="end" fill="#222" transform="rotate(25 290.00 548.00)">defineComponent (line)</text>
<rect x="383.00" y="454.67" width="42" height="65.33" fill="#4C78A8"/>
<rect x="435.00" y="174.67" width="42" height="345.33" fill="#F58518"/>
<text x="404.00" y="448.67" font-size="11" text-anchor="middle" fill="#222">7</text>
<text x="456.00" y="168.67" font-size="11" text-anchor="middle" fill="#222">37</text>
<text x="430.00" y="548.00" font-size="12" text-anchor="end" fill="#222" transform="rotate(25 430.00 548.00)">axios (line)</text>
<rect x="523.00" y="473.33" width="42" height="46.67" fill="#4C78A8"/>
<rect x="575.00" y="184.00" width="42" height="336.00" fill="#F58518"/>
<text x="544.00" y="467.33" font-size="11" text-anchor="middle" fill="#222">5</text>
<text x="596.00" y="178.00" font-size="11" text-anchor="middle" fill="#222">36</text>
<text x="570.00" y="548.00" font-size="12" text-anchor="end" fill="#222" transform="rotate(25 570.00 548.00)">router (line)</text>
<rect x="663.00" y="398.67" width="42" height="121.33" fill="#4C78A8"/>
<rect x="715.00" y="202.67" width="42" height="317.33" fill="#F58518"/>
<text x="684.00" y="392.67" font-size="11" text-anchor="middle" fill="#222">13</text>
<text x="736.00" y="196.67" font-size="11" text-anchor="middle" fill="#222">34</text>
<text x="710.00" y="548.00" font-size="12" text-anchor="end" fill="#222" transform="rotate(25 710.00 548.00)">defineComponent (symbol, fallback)</text>
<text x="80" y="662" font-size="11" fill="#666">说明：otidx 走 SQLite/FTS 索引；rg 为直接扫描文件。图中 otidx 为查询耗时（已扣除加载）。</text>
</svg>
