<?xml version="1.0" encoding="UTF-8"?>
<svg xmlns="http://www.w3.org/2000/svg" width="2920" height="670" viewBox="0 0 2920 670">
<style>text{font-family:Segoe UI, Microsoft YaHei, Arial, sans-serif;}</style>
<text x="80" y="36" font-size="20" fill="#222">otidx vs rg 速度对比（ms，越低越快）</text>
<text x="80" y="60" font-size="12" fill="#666">2026-01-31 22:48:16 | ripgrep 14.1.1 (rev 4649aa9700)</text>
<rect x="2660" y="20" width="220" height="44" fill="white" opacity="0.9"/>
<rect x="2668" y="30" width="14" height="14" fill="#4C78A8"/>
<text x="2688" y="42" font-size="12" fill="#222">otidx (ms)</text>
<rect x="2772" y="30" width="14" height="14" fill="#F58518"/>
<text x="2792" y="42" font-size="12" fill="#222">rg (ms)</text>
<line x1="80" y1="500.00" x2="2880" y2="500.00" stroke="#e5e5e5" stroke-width="1"/>
<text x="70" y="504.00" font-size="11" text-anchor="end" fill="#555">0</text>
<line x1="80" y1="430.00" x2="2880" y2="430.00" stroke="#e5e5e5" stroke-width="1"/>
<text x="70" y="434.00" font-size="11" text-anchor="end" fill="#555">470</text>
<line x1="80" y1="360.00" x2="2880" y2="360.00" stroke="#e5e5e5" stroke-width="1"/>
<text x="70" y="364.00" font-size="11" text-anchor="end" fill="#555">940</text>
<line x1="80" y1="290.00" x2="2880" y2="290.00" stroke="#e5e5e5" stroke-width="1"/>
<text x="70" y="294.00" font-size="11" text-anchor="end" fill="#555">1410</text>
<line x1="80" y1="220.00" x2="2880" y2="220.00" stroke="#e5e5e5" stroke-width="1"/>
<text x="70" y="224.00" font-size="11" text-anchor="end" fill="#555">1880</text>
<line x1="80" y1="150.00" x2="2880" y2="150.00" stroke="#e5e5e5" stroke-width="1"/>
<text x="70" y="154.00" font-size="11" text-anchor="end" fill="#555">2350</text>
<line x1="80" y1="80.00" x2="2880" y2="80.00" stroke="#e5e5e5" stroke-width="1"/>
<text x="70" y="84.00" font-size="11" text-anchor="end" fill="#555">2820</text>
<line x1="80" y1="500" x2="2880" y2="500" stroke="#444" stroke-width="1.2"/>
<line x1="80" y1="80" x2="80" y2="500" stroke="#444" stroke-width="1.2"/>
<rect x="103.00" y="134.81" width="42" height="365.19" fill="#4C78A8"/>
<rect x="155.00" y="494.19" width="42" height="5.81" fill="#F58518"/>
<text x="124.00" y="128.81" font-size="11" text-anchor="middle" fill="#222">2452</text>
<text x="176.00" y="488.19" font-size="11" text-anchor="middle" fill="#222">39</text>
<text x="150.00" y="528.00" font-size="12" text-anchor="end" fill="#222" transform="rotate(25 150.00 528.00)">python-crawl4ai / async def (symbol, fallback)</text>
<rect x="243.00" y="138.38" width="42" height="361.62" fill="#4C78A8"/>
<rect x="295.00" y="494.34" width="42" height="5.66" fill="#F58518"/>
<text x="264.00" y="132.38" font-size="11" text-anchor="middle" fill="#222">2428</text>
<text x="316.00" y="488.34" font-size="11" text-anchor="middle" fill="#222">38</text>
<text x="290.00" y="528.00" font-size="12" text-anchor="end" fill="#222" transform="rotate(25 290.00 528.00)">python-crawl4ai / async def (line)</text>
<rect x="383.00" y="248.89" width="42" height="251.11" fill="#4C78A8"/>
<rect x="435.00" y="493.74" width="42" height="6.26" fill="#F58518"/>
<text x="404.00" y="242.89" font-size="11" text-anchor="middle" fill="#222">1686</text>
<text x="456.00" y="487.74" font-size="11" text-anchor="middle" fill="#222">42</text>
<text x="430.00" y="528.00" font-size="12" text-anchor="end" fill="#222" transform="rotate(25 430.00 528.00)">vue-jeecgboot-vue3 / export default (line)</text>
<rect x="523.00" y="288.36" width="42" height="211.64" fill="#4C78A8"/>
<rect x="575.00" y="493.45" width="42" height="6.55" fill="#F58518"/>
<text x="544.00" y="282.36" font-size="11" text-anchor="middle" fill="#222">1421</text>
<text x="596.00" y="487.45" font-size="11" text-anchor="middle" fill="#222">44</text>
<text x="570.00" y="528.00" font-size="12" text-anchor="end" fill="#222" transform="rotate(25 570.00 528.00)">cpp-gdmplab / include (symbol, fallback)</text>
<rect x="663.00" y="291.79" width="42" height="208.21" fill="#4C78A8"/>
<rect x="715.00" y="493.74" width="42" height="6.26" fill="#F58518"/>
<text x="684.00" y="285.79" font-size="11" text-anchor="middle" fill="#222">1398</text>
<text x="736.00" y="487.74" font-size="11" text-anchor="middle" fill="#222">42</text>
<text x="710.00" y="528.00" font-size="12" text-anchor="end" fill="#222" transform="rotate(25 710.00 528.00)">cpp-gdmplab / include (line)</text>
<rect x="803.00" y="356.72" width="42" height="143.28" fill="#4C78A8"/>
<rect x="855.00" y="487.94" width="42" height="12.06" fill="#F58518"/>
<text x="824.00" y="350.72" font-size="11" text-anchor="middle" fill="#222">962</text>
<text x="876.00" y="481.94" font-size="11" text-anchor="middle" fill="#222">81</text>
<text x="850.00" y="528.00" font-size="12" text-anchor="end" fill="#222" transform="rotate(25 850.00 528.00)">cpp-gdmplab / add_executable (line)</text>
<rect x="943.00" y="365.51" width="42" height="134.49" fill="#4C78A8"/>
<rect x="995.00" y="492.26" width="42" height="7.74" fill="#F58518"/>
<text x="964.00" y="359.51" font-size="11" text-anchor="middle" fill="#222">903</text>
<text x="1016.00" y="486.26" font-size="11" text-anchor="middle" fill="#222">52</text>
<text x="990.00" y="528.00" font-size="12" text-anchor="end" fill="#222" transform="rotate(25 990.00 528.00)">java-jeecg-boot / throw new (line)</text>
<rect x="1083.00" y="399.02" width="42" height="100.98" fill="#4C78A8"/>
<rect x="1135.00" y="492.40" width="42" height="7.60" fill="#F58518"/>
<text x="1104.00" y="393.02" font-size="11" text-anchor="middle" fill="#222">678</text>
<text x="1156.00" y="486.40" font-size="11" text-anchor="middle" fill="#222">51</text>
<text x="1130.00" y="528.00" font-size="12" text-anchor="end" fill="#222" transform="rotate(25 1130.00 528.00)">java-jeecg-boot / public class (line)</text>
<rect x="1223.00" y="401.40" width="42" height="98.60" fill="#4C78A8"/>
<rect x="1275.00" y="494.04" width="42" height="5.96" fill="#F58518"/>
<text x="1244.00" y="395.40" font-size="11" text-anchor="middle" fill="#222">662</text>
<text x="1296.00" y="488.04" font-size="11" text-anchor="middle" fill="#222">40</text>
<text x="1270.00" y="528.00" font-size="12" text-anchor="end" fill="#222" transform="rotate(25 1270.00 528.00)">cpp-gdmplab / namespace (line)</text>
<rect x="1363.00" y="412.13" width="42" height="87.87" fill="#4C78A8"/>
<rect x="1415.00" y="493.00" width="42" height="7.00" fill="#F58518"/>
<text x="1384.00" y="406.13" font-size="11" text-anchor="middle" fill="#222">590</text>
<text x="1436.00" y="487.00" font-size="11" text-anchor="middle" fill="#222">47</text>
<text x="1410.00" y="528.00" font-size="12" text-anchor="end" fill="#222" transform="rotate(25 1410.00 528.00)">vue-jeecgboot-vue3 / defineComponent (line)</text>
<rect x="1503.00" y="412.57" width="42" height="87.43" fill="#4C78A8"/>
<rect x="1555.00" y="491.66" width="42" height="8.34" fill="#F58518"/>
<text x="1524.00" y="406.57" font-size="11" text-anchor="middle" fill="#222">587</text>
<text x="1576.00" y="485.66" font-size="11" text-anchor="middle" fill="#222">56</text>
<text x="1550.00" y="528.00" font-size="12" text-anchor="end" fill="#222" transform="rotate(25 1550.00 528.00)">vue-jeecgboot-vue3 / defineComponent (symbol, fallback)</text>
<rect x="1643.00" y="427.62" width="42" height="72.38" fill="#4C78A8"/>
<rect x="1695.00" y="494.19" width="42" height="5.81" fill="#F58518"/>
<text x="1664.00" y="421.62" font-size="11" text-anchor="middle" fill="#222">486</text>
<text x="1716.00" y="488.19" font-size="11" text-anchor="middle" fill="#222">39</text>
<text x="1690.00" y="528.00" font-size="12" text-anchor="end" fill="#222" transform="rotate(25 1690.00 528.00)">python-crawl4ai / def (line)</text>
<rect x="1783.00" y="428.21" width="42" height="71.79" fill="#4C78A8"/>
<rect x="1835.00" y="494.64" width="42" height="5.36" fill="#F58518"/>
<text x="1804.00" y="422.21" font-size="11" text-anchor="middle" fill="#222">482</text>
<text x="1856.00" y="488.64" font-size="11" text-anchor="middle" fill="#222">36</text>
<text x="1830.00" y="528.00" font-size="12" text-anchor="end" fill="#222" transform="rotate(25 1830.00 528.00)">python-crawl4ai / import (line)</text>
<rect x="1923.00" y="435.06" width="42" height="64.94" fill="#4C78A8"/>
<rect x="1975.00" y="493.15" width="42" height="6.85" fill="#F58518"/>
<text x="1944.00" y="429.06" font-size="11" text-anchor="middle" fill="#222">436</text>
<text x="1996.00" y="487.15" font-size="11" text-anchor="middle" fill="#222">46</text>
<text x="1970.00" y="528.00" font-size="12" text-anchor="end" fill="#222" transform="rotate(25 1970.00 528.00)">vue-jeecgboot-vue3 / router (line)</text>
<rect x="2063.00" y="441.32" width="42" height="58.68" fill="#4C78A8"/>
<rect x="2115.00" y="494.04" width="42" height="5.96" fill="#F58518"/>
<text x="2084.00" y="435.32" font-size="11" text-anchor="middle" fill="#222">394</text>
<text x="2136.00" y="488.04" font-size="11" text-anchor="middle" fill="#222">40</text>
<text x="2110.00" y="528.00" font-size="12" text-anchor="end" fill="#222" transform="rotate(25 2110.00 528.00)">python-crawl4ai / class (line)</text>
<rect x="2203.00" y="444.45" width="42" height="55.55" fill="#4C78A8"/>
<rect x="2255.00" y="493.89" width="42" height="6.11" fill="#F58518"/>
<text x="2224.00" y="438.45" font-size="11" text-anchor="middle" fill="#222">373</text>
<text x="2276.00" y="487.89" font-size="11" text-anchor="middle" fill="#222">41</text>
<text x="2250.00" y="528.00" font-size="12" text-anchor="end" fill="#222" transform="rotate(25 2250.00 528.00)">cpp-gdmplab / template (line)</text>
<rect x="2343.00" y="448.32" width="42" height="51.68" fill="#4C78A8"/>
<rect x="2395.00" y="491.66" width="42" height="8.34" fill="#F58518"/>
<text x="2364.00" y="442.32" font-size="11" text-anchor="middle" fill="#222">347</text>
<text x="2416.00" y="485.66" font-size="11" text-anchor="middle" fill="#222">56</text>
<text x="2390.00" y="528.00" font-size="12" text-anchor="end" fill="#222" transform="rotate(25 2390.00 528.00)">vue-jeecgboot-vue3 / axios (line)</text>
<rect x="2483.00" y="452.79" width="42" height="47.21" fill="#4C78A8"/>
<rect x="2535.00" y="488.38" width="42" height="11.62" fill="#F58518"/>
<text x="2504.00" y="446.79" font-size="11" text-anchor="middle" fill="#222">317</text>
<text x="2556.00" y="482.38" font-size="11" text-anchor="middle" fill="#222">78</text>
<text x="2530.00" y="528.00" font-size="12" text-anchor="end" fill="#222" transform="rotate(25 2530.00 528.00)">java-jeecg-boot / RequestMapping (line)</text>
<rect x="2623.00" y="472.15" width="42" height="27.85" fill="#4C78A8"/>
<rect x="2675.00" y="481.09" width="42" height="18.91" fill="#F58518"/>
<text x="2644.00" y="466.15" font-size="11" text-anchor="middle" fill="#222">187</text>
<text x="2696.00" y="475.09" font-size="11" text-anchor="middle" fill="#222">127</text>
<text x="2670.00" y="528.00" font-size="12" text-anchor="end" fill="#222" transform="rotate(25 2670.00 528.00)">java-jeecg-boot / RestController (line)</text>
<rect x="2763.00" y="475.72" width="42" height="24.28" fill="#4C78A8"/>
<rect x="2815.00" y="492.70" width="42" height="7.30" fill="#F58518"/>
<text x="2784.00" y="469.72" font-size="11" text-anchor="middle" fill="#222">163</text>
<text x="2836.00" y="486.70" font-size="11" text-anchor="middle" fill="#222">49</text>
<text x="2810.00" y="528.00" font-size="12" text-anchor="end" fill="#222" transform="rotate(25 2810.00 528.00)">java-jeecg-boot / RestController (symbol, fallback)</text>
<text x="80" y="642" font-size="11" fill="#666">说明：otidx 走 SQLite/FTS 索引；rg 为直接扫描文件。数值为脚本取多次运行中的最小 wall time（ms）。</text>
</svg>
